<?xml version="1.0" encoding="utf-8"?><svg viewBox="0 0 512 512" xmlns="http://www.w3.org/2000/svg" xmlns:xlink="http://www.w3.org/1999/xlink"><style>:root>svg{display:none}:root>svg:target{display:block}</style><svg viewBox="0 0 24 24" id="dribbble" xmlns="http://www.w3.org/2000/svg"><path d="M16.354 23.17c.02-.006.039-.014.059-.021C28.628 18.296 25.249 0 12 0 5.351 0 0 5.42 0 12c0 8.327 8.434 14.269 16.354 11.17zM5.281 20.059c.852-1.432 3.609-5.472 8.315-6.866a25.274 25.274 0 011.742 8.755 10.433 10.433 0 01-10.057-1.889zm11.532 1.263a26.925 26.925 0 00-1.71-8.467c2.082-.325 4.492-.108 7.225.987a10.524 10.524 0 01-5.515 7.48zm5.672-9.031c-3.01-1.131-5.663-1.272-7.959-.834-.355-.8-.728-1.569-1.123-2.277 3.523-1.407 5.605-3.122 6.537-4.03a10.365 10.365 0 012.545 7.141zm-3.61-8.209c-.848.807-2.845 2.437-6.26 3.77-1.674-2.648-3.464-4.516-4.598-5.562a10.438 10.438 0 0110.858 1.792zM6.583 3.023c.856.753 2.735 2.561 4.548 5.357-2.49.802-5.612 1.391-9.409 1.474.604-2.894 2.408-5.346 4.861-6.831zM1.532 11.36c4.25-.069 7.69-.74 10.409-1.648.376.659.733 1.377 1.076 2.123-4.735 1.508-7.694 5.401-8.827 7.159a10.363 10.363 0 01-2.658-7.634z"/></svg><svg viewBox="0 0 24 24" id="facebook" xmlns="http://www.w3.org/2000/svg"><path d="M15.997 3.985h2.191V.169C17.81.117 16.51 0 14.996 0c-3.159 0-5.323 1.987-5.323 5.639V9H6.187v4.266h3.486V24h4.274V13.267h3.345l.531-4.266h-3.877V6.062c.001-1.233.333-2.077 2.051-2.077z"/></svg><svg viewBox="0 0 24 24" id="pinterest" xmlns="http://www.w3.org/2000/svg"><path d="M12.326 0C5.747.001 2.25 4.216 2.25 8.812c0 2.131 1.191 4.79 3.098 5.633.544.245.472-.054.94-1.844a.425.425 0 00-.102-.417c-2.726-3.153-.532-9.635 5.751-9.635 9.093 0 7.394 12.582 1.582 12.582-1.498 0-2.614-1.176-2.261-2.631.428-1.733 1.266-3.596 1.266-4.845 0-3.148-4.69-2.681-4.69 1.49 0 1.289.456 2.159.456 2.159S6.781 17.4 6.501 18.539c-.474 1.928.064 5.049.111 5.318.029.148.195.195.288.073.149-.195 1.973-2.797 2.484-4.678.186-.685.949-3.465.949-3.465.503.908 1.953 1.668 3.498 1.668 4.596 0 7.918-4.04 7.918-9.053C21.733 3.596 17.62 0 12.326 0z"/></svg><svg viewBox="0 0 512 512" id="twitter" xmlns="http://www.w3.org/2000/svg"><path d="M512 97.248c-19.04 8.352-39.328 13.888-60.48 16.576 21.76-12.992 38.368-33.408 46.176-58.016-20.288 12.096-42.688 20.64-66.56 25.408C411.872 60.704 384.416 48 354.464 48c-58.112 0-104.896 47.168-104.896 104.992 0 8.32.704 16.32 2.432 23.936-87.264-4.256-164.48-46.08-216.352-109.792-9.056 15.712-14.368 33.696-14.368 53.056 0 36.352 18.72 68.576 46.624 87.232-16.864-.32-33.408-5.216-47.424-12.928v1.152c0 51.008 36.384 93.376 84.096 103.136-8.544 2.336-17.856 3.456-27.52 3.456-6.72 0-13.504-.384-19.872-1.792 13.6 41.568 52.192 72.128 98.08 73.12-35.712 27.936-81.056 44.768-130.144 44.768-8.608 0-16.864-.384-25.12-1.44C46.496 446.88 101.6 464 161.024 464c193.152 0 298.752-160 298.752-298.688 0-4.64-.16-9.12-.384-13.568 20.832-14.784 38.336-33.248 52.608-54.496z"/></svg></svg>